<?xml version="1.0" encoding="UTF-8"?>
<svg id="_分離模式" data-name="分離模式" xmlns="http://www.w3.org/2000/svg" version="1.1" viewBox="0 0 247.26 33.59">
  <!-- Generator: Adobe Illustrator 29.7.1, SVG Export Plug-In . SVG Version: 2.1.1 Build 8)  -->
  <defs>
    <style>
      .st0 {
        fill: #981e32;
      }
    </style>
  </defs>
  <path class="st0" d="M0,7.76v-1.13c.12-.59.36-1.14.71-1.63.26-.5.54-1,.85-1.47.59-.73,1.64-1.82,2.78-1.86,1.29,0,1.57,1,2.45,1.21.5.12,1,0,1.56,0,.88.13,1.68.68,2.6.87s2,.41,3,.55c2.3-.94,5.11-.31,7.78-.2,1.37-.01,2.74.06,4.1.21,1.26.24,2.54.41,3.82.49.22-.29.75-.26.76-.76.33-.16.58-.55.94-.57.68,0,1.77,1.38,1.8,2s-.51,1.12-.62,1.84c-.03.34-.07.67-.14,1-.14.31-.25.62-.33.95.02.82.08,1.63.19,2.44-.01.78-.12,1.55-.31,2.3-.3,2.46-.48,4.93-.52,7.41-.05.74.14,1.49.14,2.22-.02.4-.07.79-.14,1.18-.06.17-.11.34-.15.52,0,.18.12.37.1.56-.12.67-.33,1.32-.61,1.94.07.31.1.63.09.95-.46.69-1.1,1.24-1.85,1.6-1.29.5-3.19.31-4.86.37l-2.5.11c-.89.05-1.73-.18-2.55-.17h-2.22c-.14,0-.25-.1-.38-.1s-.43.12-.65.15c-.78.09-1.57.11-2.36.06-.56,0-1-.33-1.7-.36-.91.02-1.81.13-2.69.35-1.23.2-2.7-.09-3.77.12-.68.14-1.08.42-1.56.34-.73-.13-1.26-.76-1.28-1.5-.02-.14-.05-.28-.09-.42,0-.34.03-.67.09-1,0-.35-.49-1-.61-1.37-.54-1.55-.83-3.18-.87-4.82,0-1.14-.06-2.33,0-3.54.06-1.21.06-2.39,0-3.6,0-.65-.35-1.34-.38-2,0-.65.07-1.3.18-1.94,0-1.15-.27-2.28-.8-3.3ZM21,7.09c-2.28-.05-4.55.12-6.79.52-.37-.39-1,0-1.51.06-.66,0-1.36-.24-2.08-.22-.44,0-.88.13-1.32.1-.63,0-1.24-.22-1.88-.22-.98.02-1.96.11-2.93.26.27.87.38,1.77.33,2.68-.06.74-.58,1.65-.56,2.23s.37.93.42,1.41c.03.36.03.72,0,1.08-.1,1.26-.09,2.66-.19,3.92,0,.26-.14.54-.14.8,0,.67.38,1.38.14,2,.65-.19,1.33-.26,2-.2.5.07.94.44,1.37.5.43.06,1-.07,1.56,0,.37,0,.75.21,1.13.28,1.9.51,3.89.53,5.8.05.67-1.66,1.87-2.8,2.74-4.26-.65-1.57-1.42-3-1.94-4.71h-.75c0,1.22.51,2.78.14,4-.24.63-.58,1.22-1,1.75-.24.13-.49.24-.75.34-.22.12-.42.39-.62.43-.62,0-1.23-.05-1.84-.13-.41,0-.81.19-1.22.2-.82-.02-1.62-.21-2.36-.55-.94.5-2.11.27-2.79-.55-.26-.61-.08-1.32.43-1.75.19-.1.4-.19.61-.25,1.35-.7,2.37-1.89,2.88-3.32-.91-.66-2.65-.19-3.21-1.11-.27-.54-.37-1.14-.29-1.74.41-.66,1-1.2,1.7-1.53.45-.16.93-.21,1.4-.16.75.11.92.76,1.61,1,.64.12,1.28.16,1.93.13.68.17,1.38.29,2.08.36.57,0,1-.17,1.55-.15.26-.61,0-1.36.24-1.94.11-.26.43-.41.66-.57.81-.56,1.1-.41,1.56.37.47.67.7,1.48.66,2.3,1.2.21,2.42.26,3.63.17.29-.45.39-.99.28-1.51-.14-.36-.68-.38-.75-.75.21-.26.86-.7.8-.91-.92-.05-1.84-.18-2.73-.41ZM25.58,7.62c.53.51.85,1.2.9,1.93,0,.67-.5.93-.71,1.47.59.69-.63.7-.24,1.13-1.22,1-3.31,1.18-5.33,1.22.12.94.36,1.85.71,2.73,1.12-1.05,1.91-2.44,3.87-2.67,1.11,1.37-.27,2.59-1,3.5-.54.68-1,1.33-1.47,1.85.6,1.12,1.35,2.17,2.22,3.1-.18.16,0,.39,0,.56s-.28.08-.19.34c.4.43,1.24.1,1.93.12.52,0,1.03.11,1.51.32-.05.36-.05.73,0,1.09-.64.09-1.26.56-1.93.63-.26,0-.49-.06-.76-.05-.63,0-1.28.15-2,.16-2.48,0-4.84.25-7.17.14-.78,0-1.41.14-2.12.16-2,.06-4-.12-5.85-.1-1.09,0-2.11-.08-3-.07-.17.74.24,1.25.28,1.93,1.51-.4,2.71.46,4.06.44.65-.03,1.3-.12,1.93-.29.25-.12.51-.2.78-.26.2,0,.44.1.66.08s.37-.15.57-.14c.76,0,1.61.65,2.45.74,1.29.13,2.51-.24,3.92,0,.86-.57,1.9.15,2.92.17.84,0,1.7-.32,2.59-.25.23,0,.49.14.71.14.66-.13,1.33-.23,2-.3.87-2.15.31-4.81.33-7.36,0-2.05-.2-4.24,0-6.28.11-.64.19-1.28.24-1.93-.13-.99-.21-2-.24-3,.12-.46.18-.94.19-1.42-.91.19-1.84.25-2.77.17h.01ZM10.38,17c.86.38,1.8.58,2.74.59.68-.06,1-.67,1-1.37.08-1.07-.45-2.09-1.37-2.63-.49,1.41-1.69,2.15-2.37,3.41ZM20.76,20.89c-.44.57-.91,1.11-1.33,1.7,1.04.32,2.15.38,3.22.17-.78-.5-1.17-1.36-1.89-1.89v.02Z"/>
  <path class="st0" d="M83.33,4.43c.16.09.32.18.47.28.53,0,.77-.3,1.27-.34.27-.4.48-.85.61-1.32.43-.14.87-.19,1.32-.15.48.22.77.73.71,1.26.03.47.03.95,0,1.42-.2.67-.47,1.32-.8,1.94-.33.63-.59,1.3-.76,2,.68.4,1.74-.43,2.31.17.43,1.39-.73,2.18-2.21,2.33-1.67.25-3.37.17-5-.25-.46.36-1.1-.18-1.6.1-.12.67.16,1.36.05,2,0,.16-.15.32-.19.48-.13.95-.21,1.91-.24,2.87-.13,1-.76,1.92-.56,3,.63-.27,1-.75,1.93-.58.48.1.91.66,1.41.65-.27-.8-.66-1.54-1.17-2.21-.26-.39-.67-.69-.76-1.12-.03-.84.13-1.69.47-2.46,1.07-1.59,3.69-.49,5,.11.3-.18.35-.49.71-.53.76.04,1.35.69,1.32,1.45,0,.33-.55.74-.8,1.14s-.24.65-.43.9-.64.51-.89.81-.25.53-.43.71-.53.26-.7.43c-.06.37-.02.74.09,1.09.46.16.94.27,1.42.31.59,0,1-.43,1.6-.48.16.33.39.64.66.89,0,.26-.29.23-.14.47-.55.47-1.15.87-1.8,1.2-.55.19-1.25,0-1.79.39-.38,4-1.83,7-6,7.21-.59-.21-1.67-.6-1.41-1.6l.14-.24c.39-.42,1.37-.16,2-.34,2.22-.61,3.09-2.42,3.12-5.17-1.17-.59-3.06.1-4.11-.58-1.19,2.34-3.93,3.45-6.41,2.59-.48-.5-1.28-1.48-1-2.44.19-.52.8-.64,1.33-.91.26.25.56.44.89.56,2.38.35,3.7-1.15,4.06-3.52.41-2.21.28-4.5-.38-6.65-1.29-.48-2.41-.06-3.77,0-.09-.14-.24-.24-.33-.38.16-1.05-.24-2.12.42-2.83.16-.17.41-.19.66-.33.62-.37,1.64-1.14,2.55-.54.17.11.28.34.52.47s.56.19.85.32c.69.37,1.48.51,2.26.41.18-.69.25-1.41.2-2.13-.9-.1-1.85-.24-2.69-.36-.3,0-.6-.04-.9-.09-.26-.1-.4-.39-.66-.42s-.4.15-.61.14-.43-.17-.66-.27c-.31-1.07-.15-2.22.42-3.17.38-.43.87-.74,1.42-.9.43-.08.83.15,1.27.13.28,0,.45-.18.76-.19.24.17.3.7.37,1.17.45.31.94.54,1.46.7,0-1.69.18-3.22,1.23-3.88.24-.07.23.12.42.09s.37-.37.76-.19.8,1.73.85,2.45c.05.72-.16,1.4-.11,1.93ZM83.33,7.31c-.28.61-.43,1.27-.43,1.94.32.07.57.21.9.27.21-.79.39-1.6.52-2.41-.32.08-.66.14-.99.2ZM82.57,16.61c.33.37.5.91.85,1.26.32-.42.6-.86.85-1.32-.56-.13-1.15-.11-1.7.06Z"/>
  <path class="st0" d="M94.55,8.41c.38.29.81.51,1.27.65.83.42,1.7.76,2.6,1,.79.21,1.62.21,2.41,0,.21-.1.48-.46.71-.48.7-.07.64.91.37,1.36-.96,1.21-2.46,1.87-4,1.73-.37,1.03-.6,2.11-.67,3.21,0,.17-.15.16-.19.29.11,1.54-.85,2.45-.61,4.29-.62.8-.11,1.49.29,2.45.58,1.46,1.28,2.87,2.07,4.23.53.76,1.29,1.34,2.17,1.64.76.27,1.62.1,2.22-.44.21-.28.32-1.09.71-1.09.59,0,.48,1.53.28,2.07-.23.79-.83,1.41-1.61,1.68-1.15.54-3.78,1.32-4.95.27-.81-.73-1.07-2.1-1.51-3.29-.55-1.08-1.02-2.2-1.42-3.34-1.31.77-2.75,2.15-4.81,2.39-.91.11-1.78-.18-2.83-.17-.23-.17-.46-.33-.71-.47-.21-.6-.29-1.24-.23-1.88.12-.25.39-.37.61-.52,2,.44,4.31.19,5.57-.85.3-.25,1-1,1-1.46-.21-.55-.48-1.07-.8-1.56-.3-.58-.53-1.1-.76-1.59-.5-1.09-.88-2.54-1.32-3.39-.32-.54-.59-1.11-.8-1.7-.1-.3-.33-.6-.33-.79,0-.51.63-.9.71-1.38-.17-.15-.6-.09-.81-.37-.19-.42-.19-.9,0-1.32.06-.14.21-.19.33-.33s.16-.31.28-.38.49-.11.71-.19c1.47-.61,2.35-2.12,2.17-3.7-.06-.28-.33-.58-.29-.94s.65-.53.81-1.19c1.11-.53,2.42.57,2.68,1.54.38,1.5-1.02,3.05-1.32,4.02ZM93.61,11.53c-.47-.76-1.85-.5-2.36.06.55.87,1.02,1.78,1.42,2.73.2.5.35,1,.56,1.5s.5.9.71,1.37c.12.26.11.61.38.8.2-2,.87-4.12.51-6.19-.42-.07-.83-.17-1.22-.27Z"/>
  <path class="st0" d="M55.52,4.88c.97-.05,1.95-.05,2.92,0,.25-.01.51-.01.76,0,.33,0,.65.29,1,.36.63.03,1.26.03,1.89,0,.65.16,1.33.21,2,.17.16,0,.24-.17.43-.23s.37,0,.51-.1c.53-.2,1.27-.88,2.22-.49.65.39.96,1.17.75,1.9-.13.43-.62.63-.85,1.09-.64,1.25-.31,3-.71,4.35,0,.21-.13-.12-.19.09.05,1.4-.84,2.66-2.17,3.09-.23-.12-.57-.12-.8-.23-.62-.53-.07-1.52.09-2.13.4-1.44.07-3.21.33-4.91-1.61-.25-3.41-.25-5-.53-.51-.09-1-.29-1.51-.32-.98.02-1.95.25-2.83.68-.76,0-1.56-.44-2.4-.36-.26,0-.41.21-.66.29-1.13.3-2.28.47-3.45.5-.86.14-1.72.2-2.59.2-1.16-.08-2.26-.6-3.42-.3.19,1.86-.29,4.53.47,6-.29.33-.28,1-.66,1.18-.17.14.19.28,0,.38-.18-.16-.46,0-.7-.09-.6-.71-1.68-1.58-1.84-2.86v-1c-.16-.48-.27-.96-.33-1.46,0-.23.11-.47.1-.7,0-.89-1-1.4-1.28-2.31-.27-1.2.17-2.44,1.13-3.21,1-.64,3.32-.71,3.78.63.75.05,1.5.19,2.21.44.62.34,1.3.57,2,.69.51,0,1-.19,1.55-.2,1.15,0,2.8,0,3.16-.73.13-.32.13-.68,0-1-.29-.58-1.27-.38-1.36-1.07.02-.4.17-.78.42-1.09.57-1.09,1.89-1.53,3-1,.52.2,1.01.47,1.46.79.99.73.99,2.37.57,3.49Z"/>
  <path class="st0" d="M59.67,11.13c.59.3.82,1.02.52,1.6-.05.1-.11.19-.19.27-.66,0-1.05.54-1.7.72-1.75.5-4.06-.24-5.85.23.12,1.23.58,2.4,1.32,3.39.73-.22,1.52-.09,2.13.36.37.22.53.55.89.56s.64-.3.95-.48c.87-.5,1.63-1.18,2.21-2-.13-.36-.12-.77.05-1.12.72-.08.86-.69,1.7-.53,1.09.43,1.79,1.51,1.74,2.68-.09.68-.59.66-1.17,1s-.95.9-1.56,1.1c-.32.76-1.69.89-2.31,1.52.2.72.57,1.38,1.08,1.93.85,1.14,1.76,2.35,2.69,3.52.49.73,1.11,1.36,1.83,1.87.94.54,2.76,1.12,4.06.39.26-.14.54-.75.85-.76s.83.89.75,1.5c-.1.3-.28.56-.52.76-.62.84-1.52,1.44-2.54,1.68-.26,0-.52-.09-.76-.09-.53,0-1,.14-1.51.15s-.65-.24-1-.14c-.42-.34-1.09-.42-1.51-.79-.31-.38-.58-.79-.8-1.22-.28-.41-.58-.84-.85-1.17-.89-1.08-1.72-2.26-2.54-3.47-.94-1.11-1.78-2.32-2.49-3.59.54,2.44.19,4.99-1,7.18-.96,1.88-2.67,3.27-4.71,3.82-.67-.27-1.03-.99-.85-1.69.05-.14.23-.26.47-.47s.4-.54.85-.53c1.68-1.67,3.47-4.26,2.55-7.52-.42.35-.8.75-1.13,1.19-.37.43-.71.89-1,1.38-.82.45-1.6.98-2.32,1.57-1.62,1.12-3.36,2.05-5.19,2.77-1.35.54-2.64,1.31-4.53,1.07-.45-.06-1.55-1.16-1.46-1.78.16-.37.47-.67.85-.81.36-.05.72-.07,1.08-.05.89-.16,1.77-.42,2.6-.78,1.76-.41,3.45-1.08,5-2,.49-.37.97-.77,1.42-1.19.48-.38.94-.8,1.37-1.24.44-.52.79-1.12,1.18-1.66s1.09-1,.75-1.8c-.48.03-.93.24-1.27.58-.22.19-.32.47-.52.66-.34.23-.7.44-1.08.62-.37.23-.7.57-1,.72s-.34.07-.51.14c-.59.26-1.16.68-1.75,1-1.17.73-2.41,1.34-3.71,1.82-1.01.3-2.07.4-3.12.3-.36-.28-.87-.4-1.09-.79-.33-.63.07-1.11.57-1.56,1.9-.04,3.75-.54,5.41-1.46.78-.35,1.61-.57,2.22-.91s1-.67,1.46-1c.54-.26,1.06-.55,1.56-.86.29-.26.56-.54.8-.85.3-.24.54-.55.7-.9-.08-.22-.17-.45-.28-.66-1.22.33-2.23,1.38-3.35,2-1.15.62-2.36,1.12-3.61,1.49-.96.36-1.99.46-3,.3-1.05-.21-2-.56-1.93-2,.39-.34.8-.66,1.23-.95,3.41.28,6.9-.51,8.63-2.37-.52,0-1-.43-1.65-.51-.27,0-.55.09-.8,0-1.21-.42-.23-1.93.19-2.74.54-.1,1-.54,1.6-.62s1.19.27,1.89.26c.24.35.53.67.85.94,1.09.22,2.19.39,3.3.5.51,0,1-.15,1.55-.2.79-.05,1.57-.05,2.36,0,.44,0,.87.2,1.28.18.62,0,1.16-.42,1.67-.46Z"/>
  <path class="st0" d="M145.68,8.49c0,1-.3,2-.35,2.95s.11,1.69,0,2.43c0,.35-.16.67-.2,1-.12,1,0,1.89-.2,2.85-.12.87-.29,1.74-.51,2.59-.18.47-.42.91-.71,1.32-.46.87-1.03,1.66-1.71,2.37-.37.34-.68.79-1,1.07-.64.6-1.43,1.01-2.28,1.19-.81,0-1.4-.91-1.73-1.67-.16-.27-.23-.59-.2-.91.13-.41.76-.28,1-.71.53-.02,1.06-.11,1.57-.27,1.72-.82,2.94-2.42,3.3-4.29.47-2.3.62-4.66.46-7-.25-1.2-.71-2.36-1.35-3.41-.39-1.72.43-3.48,2-4.28,1.3-.59,1.94,1.11,2.69,1.45.54.13,1.08.23,1.63.3.26.07.49.25.7.3.58.04,1.15.04,1.73,0,.67.17,1.37.11,2-.16.23-.13.47-.68.91-.51.28.09.34.86.21,1.26-.07.2-.32.37-.56.62s-.34.52-.51.66-.48.26-.71.41c-.43.36-.96.57-1.52.62-1.57.18-3.14-.25-4.66-.18Z"/>
  <path class="st0" d="M168.42,8.94c-.06.53-.14,1.05-.25,1.57.06.48.14.95.25,1.42.05.69-.1,1.34-.1,2.08.46.18.93.32,1.42.4,1.06.07,2.28-.74,2.49.44.05.75-.44,1.43-1.17,1.63-.92.2-1.85.31-2.79.33-.31,4-.09,8.74,0,12.94,0,1,.39,2.4.1,3.15-.47.52-1.19.76-1.88.62-.51-.22-.37-1.21-.5-2-.09-.33-.16-.66-.21-1,0-.28.11-.67.11-.86s-.13-.63-.16-1c0-.53.05-1.11.05-1.72,0-1.13-.15-2.38-.15-3.61s-.24-2.53-.15-3.6c.2-1.04.21-2.1.05-3.15-1.47,0-2.51-.41-4-.43-.7,2.26-.85,5-1.93,6.87-.17.3-.41.56-.61.87s-.32.69-.51.92c-1.14,1.33-2.69,2.23-4.41,2.57-.83.29-1.75.18-2.49-.29-.52-.5-.78-1.21-.71-1.93.34-.57,1.08-.18,1.83-.16.76,0,1.5-.18,2.18-.52.26-.12.29-.36.61-.31.29-.32.77-.41,1.06-.72.38-.48.71-.99,1-1.53.91-1.46,1.07-3.39,1.37-5.65h-.87c-.47,0-.94-.36-1.42-.34-.64,0-.9.94-1.62.72-.35-.11-.53-1.15-.51-1.72,0-1.11,1.38-2.78,2.59-2.76.71.12,1.35.47,1.83,1,.4-1.5.3-3.08-.26-4.52-.74-.19-1.46-.48-2.13-.85-.75.37-1.71.54-1.93-.49-.11-.78,0-1.58.32-2.31.39-.41,1-1.19,1.62-1.33.63-.05,1.27,0,1.88.19.71,1.39,2.9,1.27,4.36,1.9,1-.48,2.23.13,3.41.13.43,0,.87-.13,1.32-.11.99.16,2,.23,3,.18.46-.09.91-.5,1.32-.52.49,0,.91.33,1,.81-.58,1.75-2.04,2.68-4.41,2.69ZM161.77,8.83c0,1.55-.09,3.09-.3,4.62.44.13.92.24,1.42.35.87.28,1.82.28,2.69,0,0-.61.29-1.16.25-1.78s-.32-1-.35-1.62c-.01-.49.04-.99.15-1.47-1.28-.16-2.57-.19-3.86-.1Z"/>
  <path class="st0" d="M146.65,23c-1.05-.76-.2-2.13,0-3.09.27-1.06.32-2.17.15-3.25-.09-.43-.42-.76-.51-1.27-.32-1.77.53-3.08,1.62-3.26s1.44.67,1.88,1.3c.74.18,1.15.48,1.83.19s.68-1,1.22-1c.38,0,.56.34.81.66-.04,1.07-.15,2.14-.35,3.2.01.29.01.57,0,.86,0,.23-.23.37-.3.61s-.09.68-.15,1c-.08.3-.15.6-.2.91,0,.51.22.92.1,1.32-.19.42-.56.74-1,.87-1.17.42-3,.06-4.21.39-.32.12-.48.4-.89.56ZM149,16.23c-.18,1.23-.39,2.41-.56,3.51.78.35,1.66.42,2.49.18.1-1.2.19-2.41.2-3.7h-2.13Z"/>
  <path class="st0" d="M124,4c.69.29,1.42.48,2.17.56.83,0,1.56-.25,2.31-.25.68.01,1.35.12,2,.31,1.56.4,3.58.33,5.1.72.45-.19.93-.31,1.42-.34.52-.35.88-.86,1.42-1.19.4.29.57.8.42,1.27-1.08,1.5-2.78,2.43-4.62,2.53-.89.04-1.79-.09-2.64-.36-.81-.08-1.6-.26-2.36-.54-.71.11-1.53-.2-2.22,0,.19.46.27.96.23,1.46,0,.18.15.36.15.52-.13,1.25-.84,2.37-1.93,3-.85.26-1.72.42-2.6.49-.74.05-1.48.05-2.22,0-.43,0-.81-.24-1.22-.27-.79-.07-1.52.53-2.22.44-.26-.09-.51-.2-.75-.33-.77-.33-1.46-1.11-.76-2.07.15-.1.35-.12.52-.05,1.14-.69,2.07-1.67,2.69-2.85-.65,0-1.24.35-1.89.39-1.24.08-2.55-.38-3.82-.4-.48.06-.95.18-1.41.34-1.59.36-3-.4-4.25-.77-.43.14-1.6.88-1.93.49-.16-.18,0-.4,0-.71-.08-.45-.11-.91-.1-1.37.16-.43.4-.83.71-1.18.49-.73,1.29-1.19,2.17-1.24.37.1.74.23,1.08.41.31.1.63,0,.86.14.42.18.67.69,1.08.84.74.09,1.42,0,2.12,0,1.36.1,2.45.77,3.92.78,1.18,0,2.86.15,2.92-1.06-.06-.28-.5-.44-.56-.8-.03-.41.04-.82.21-1.19.8-1.52,4-1.16,4.2.77,0,.51-.06,1.02-.2,1.51ZM122.21,6.71c-.67.72-1.19,1.58-1.51,2.51,1.22.6,2.62.71,3.91.3.32-.84-.04-1.79-.84-2.21.11-.24.15-.5.13-.76-.57,0-1.13.06-1.68.2v-.04Z"/>
  <path class="st0" d="M124.34,24.09c-.74.27-1.87,0-2.93,0-.53,0-1,.22-1.5.24s-.77-.18-1.09,0c-.32.34-.59.72-.8,1.14-.27.47-.44,1.13-.66,1.51-.51.81-1.12,1.55-1.84,2.19-.22.17-.47.3-.71.52-.38.42-.87.74-1.41.91-.53.15-1.1.12-1.61-.09-.14-.07-.76-.75-.75-1.08,0-.74,1.31-.86,1.89-1.14.53-.3,1.02-.67,1.46-1.1.89-.92,1.51-2.06,1.79-3.31.25-.6.48-1.21.66-1.84.15-1.05.18-2.11.09-3.17-.04-.56-.18-1.1-.42-1.6-.34-.75-1.4-1.72-.76-2.87.51-.65,1.15-1.19,1.89-1.57.79-.02,1.58.12,2.31.41.76.17,1.54.29,2.32.36,1.59.2,3.12,1.2,3.86-.36.52.09.71-1,1.46-.76.57.16.42,2.17.24,2.68-.08.24-.29.44-.37.67-.19.46-.18,1-.34,1.51-.09.29-.29.58-.37.9-.17.9-.21,1.83-.1,2.74.12,1.61,0,3.31-.05,4.8,0,.37.13.77.15,1.18s-.1.69-.1,1c0,.77.16,1.56.19,2.26,0,.38-.06.71,0,1,.07.37.07.76,0,1.13-.22.45-.68.73-1.18.72-1.22-.1-1.28-2.94-1.36-4.34-.08-1.55-.06-3.1.04-4.64ZM119.34,17.57c.74.42,1.79.17,2.73.26.59.06,1.35.44,2,.23,0-.51.25-1.15.28-1.75-1.83-.06-3.5-.53-5.42-.34.2.52.35,1.06.46,1.6h-.05ZM119.24,20.49c0,.36-.11.68-.14,1,.59.11,1.19.17,1.79.18,1.11,0,2.26.1,3.12.07.04-.5.04-1.01,0-1.51-1.56.38-3.43-.77-4.72.26h-.05Z"/>
  <path class="st0" d="M235.89,5.61c.7.31,1.35.09,2.17.22.47.08,1,.24,1.56.32.51.14,1.03.25,1.55.32.51-.06.71-.74,1.13-.91.86-.34,1.43.56,1.75.89-.06,1.26-.09,2.44-.19,3.68,0,.86-.11,1.72-.33,2.55-.21.39-.45.77-.71,1.14-.17.4-.47.73-.85.95h-.71c-.19-.15-.37-.32-.51-.52-.29-1,.23-1.66.38-2.4.14-1.14.08-2.29-.19-3.4-2.59-.12-4.91-.11-7.41-.18-.77.04-1.54.13-2.31.25h-.62c-.21,0-.7.2-1.08.24-.72.04-1.45.04-2.17,0-.08,1-.38,2.11-.38,3.21,0,.72.37,1.27.28,1.79,0,.15-.07.06-.19.24-.26.41-.65,1.76-1.55,1.33-.35-.45-.63-.96-.8-1.5-.21-.63-.34-1.28-.38-1.94-.21-1.69-.26-3.39-.14-5.09-.74.59-1.19,1.87-2.08,2.47-.22.55-.61,1.03-1.11,1.35,0,.25,0,.54-.28.57.52.61,1.2,1.05,1.46,1.93-.16.87.25,1.78.14,3-.28,1.49-1.15,2.81-2.41,3.65-.35.33-.75.6-1.18.8-.65.22-1.23.07-1.83.3,0,.68-.21,1.4-.19,2.17,0,.38.17.79.14,1.13s-.19.42-.24.67c-.12,1.77-.12,3.56,0,5.33,0,.95-.17,2.32-.84,2.41-.39,0-.75-.18-1-.47-1.26-1.39-1.09-3.81-1.08-6.5,0-1.13.16-2.25.14-3.21,0-.2-.09-.4-.09-.56,0-1.08.25-2.23.28-3.4,0-.81-.18-1.63-.14-2.45.08-1.71.27-3.41.28-5,0-1.29-.41-2.69.09-3.68-.39-.18-.73-.45-1-.79-.27-1.03-.08-2.12.52-3,1-.6,1.83-1.49,3.5-1.11,1.13.41,1.72,1.55,2.73,2.19.39.28.84.46,1.32.51.74,0,1.34-1.4,2.31-1.38.81.27,1.33,1.08,1.23,1.93.69-.95,1.84-1.43,3-1.25.64.8,1.57,1.3,2.59,1.39.87,0,2.32-.11,2.36-1-.62-.4-1.46-.63-1.46-1.45s.81-1,1-1.71c.23-.13.44-.28.65-.44.63-.15,1.29-.1,1.89.13.65.4,1.12,1.04,1.32,1.78.05.85-.06,1.69-.32,2.5ZM217.49,7.3c-.56,1.08,0,2.47-.28,3.82,1-.31,1.49-1.38,2-2.14.41-.41.65-.97.66-1.56-.79.09-1.6.05-2.38-.12ZM217.39,18.57c.15,0,.11.15.29.1.35-.16.62-.64,1-1,.1-.09.24-.11.33-.2,1-1,.87-3.2-.33-3.86-.47.27-1.04.33-1.56.15-.31,1.7-.37,3.43-.19,5.15.18-.05.21-.31.46-.34Z"/>
  <path class="st0" d="M229.42,10.33c1.05-.24,1.75.28,2.65.36,1.19.6,2.53.85,3.86.72.47,0,.93-.09,1.37-.24.42-.15.74-.47,1.13-.48.45-.01.89.18,1.19.51.17.31.25.65.23,1-.11.74-1.14,1.08-2.22,1.25-1.01.17-2.03.28-3.06.35-.76,0-1.56.1-2.17.06-.93-.11-1.87-.08-2.79.07-.37.08-.66.31-1,.24-.37-.12-.68-.39-.84-.75-.08-.76.08-1.52.47-2.17.33-.38.73-.7,1.18-.92Z"/>
  <path class="st0" d="M240.51,16.48c.1.68-.37.8-.47,1.27-.43.1-.7.48-1.13.67-.75.18-1.51.31-2.27.39-.42,1.22,0,3.22-.47,4.44.69.61,1.47,1.12,2.31,1.5.07.12.2.17.24.32,1,.39,2.38,1.44,3.68,1.63.76.16,1.55.16,2.31,0,.9-.26.49-1.63,1.41-1.94.79.83.45,2.88-.28,3.72-.43.4-.9.76-1.41,1.05-.44.25-.9.48-1.37.68-.63.26-1.14.69-1.75.62-.88-.1-1.53-1.32-2.17-1.87-.39-.29-.8-.56-1.23-.8-.41-.27-.73-.68-1.08-.93-.19-.13-.58-.24-.9-.42-.36-.29-.78-.51-1.22-.65-.64-.14-1.31,0-2-.18-.56-.82.08-1.66.38-2.36.57-1.32.42-3,.47-4.62-.61-.24-1.28-.3-1.93-.18-.31.15-.67,1.28-.85,1.61s-.57.78-.85,1.19-.49.87-.76,1.28c-.3.38-.63.75-.97,1.1-.79,1.02-1.72,1.92-2.78,2.66-.74.28-1.5.51-2.27.68-.21-.15-.21-.52-.57-.28-.17-.28-.41-.51-.7-.66.06-.32-.17-.33-.29-.47.16-.38.61-.46.57-1,.21-.13.41-.28.61-.43,1.4-.2,2.69-.85,3.68-1.86.32-.28.66-.48,1-.72.29-.31.56-.64.8-1,.51-.64,1.11-1,1.27-1.9-1.05-.29-2.22.87-3.06,0-.42-.52-.64-1.17-.62-1.83.15-.48.43-.9.81-1.23.82-.66,1.89-.93,2.92-.73.29.1.54.45.85.56.42.08.84.14,1.27.18,2.01.34,4.06.4,6.09.19.59-.15,1.19-.24,1.79-.25.32-.03.61.38.94.57Z"/>
  <path class="st0" d="M191.35,1h1.18c1.4.1,2.45,1.32,2.35,2.72,0,.09-.02.19-.04.28,0,.36-.16.69-.14,1,1.58.46,3.38.23,5.19.43.74.09,1.62.11,2.45.27.4.09.82.15,1.23.18.41.03.81.03,1.22,0,.4-.1.27-.28.52-.57.6-.51,1.49-.44,2,.16.09.1.16.22.22.34-.07,1.21-.73,2.27-1,3.59-.27,1.21-.6,2.41-1,3.59-.11.4-.34.75-.66,1-.1.42-.46.72-.89.76-.08-.19-.39-.05-.52-.14s-.05-.23-.1-.28-.25-.1-.28-.14c-.92-1.12,0-2.05.23-3.4.22-.88.32-1.78.29-2.69-1.95-.29-3.92-.32-5.88-.1-.03,1.12-.2,2.23-.52,3.3,1.31.61,3.1-.08,4.43.07.02.74-.36,1.43-1,1.8-.5.29-1.04.5-1.6.62-1.09.16-2.48-.25-3.68-.21-.54,0-1,.22-1.41.2-.71,0-2-.47-2-1.07-.05-.43.4-.64.52-.9s.2-.72.56-.85.68.07,1-.1c.77-.38,1.1-1.93.71-2.84-.79-.21-1.62-.21-2.41,0-.48-.12-.98-.12-1.46,0-.19.65-.3,1.32-.33,2-.19.58-.45,1.13-.76,1.65-.64,1.71-2.38,2.75-4.19,2.48-.5,0-1.55-.08-1.75-.36-.47-.67-.68-2,.33-2.32.73-.24,1.58.22,2.36.17.67-.02,1.27-.4,1.56-1,.16-.39.5-1.62.09-2.08s-2.29-.07-3.07-.17c-.95-.12-1.89-.3-2.82-.54.21,1.01.26,2.04.14,3.06-.11.84.03,1.7.42,2.46.52.59-.7,1.46-1.36,1.42s-1-.57-1.42-1.22c-.38-.61-.62-1.29-.71-2-.11-.81,0-1.69-.23-2.46-.28-.65-.52-1.32-.71-2-.08-.68.04-1.38.33-2,.22-.53.53-1.02.94-1.43.77-.48,1.7-.66,2.6-.49,1.13.25,1.63,1.49,2.59,1.78s2.6.15,3.72.4c.48.1.86.5,1.33.46s.9-.77,1.13-1.33c-.48-.42-1.32-.31-1.41-1-.06-1.13.64-2.15,1.71-2.5Z"/>
  <path class="st0" d="M192.58,18.14c.69.42,2.09.28,3.2.45.33.1.66.16,1,.18.31-.09.31-.61.75-.43.46-.5.85-1.6,1.79-1.48.31,0,.75.62.8.94.1.55-.35,1-.56,1.47-.28.89-.5,1.81-.66,2.73-.07.25-.35.53-.38.85-.11,1-.56,2.4-.33,3,.17.46.64.41.85.84,1.02.54,2.08,1.02,3.16,1.44,1.19.49,2.45.78,3.73.87.43,0,.86-.06,1.27-.2.18-.07.24-.24.42-.33s.39-.05.57-.14c.39-.25.71-.6.94-1,.17-.32.11-1.23.47-1.27s.51,1.5.43,2.17c-.31,1.39-1.12,2.61-2.27,3.45-.55.31-1.13.55-1.74.73-.6.31-1.26.49-1.94.53-.64-.08-1.67-1.15-2.26-1.45-.66-.26-1.3-.55-1.93-.88-1.6-1-4.49-2.25-4.67-4.54-.09-1.42.14-2.84.66-4.16.12-.33.42-.63.23-1-1.56.1-3.11.1-4.67,0-.56.93-.79,1.94-1.37,2.79-.25.37-.66.69-1,1.09s-.56.86-.89,1.19c-1.15.9-2.49,1.53-3.92,1.82-1.13.25-2.28.42-3.44.5-.94.14-1.91.07-2.82-.2-.59-.18-1.07-.61-1.32-1.17-.28-.68-.32-1.92.61-1.8-.13-.48.91-1,1.56-.57.18.12.19.42.37.56s.6.09.81.32c.66-.09,1.34-.09,2,0,.23,0,.46-.16.71-.19.51-.07,1.12,0,1.69-.16s1.05-.27,1.28-.71c.49-.21.92-.52,1.27-.91.24-.19.47-.39.67-.62.12-.2.12-.46.23-.66.24-.47.69-.82.75-1.37-.31-.09-.62-.13-.94-.14-.59.13-1.19.23-1.79.3-.25,0-.44-.26-.66-.33-.48-.05-.96-.16-1.42-.32-.86.38-2.22,0-1.74-1.07-1.14-.7.16-2.1.89-2.51.73-.35,1.56-.46,2.36-.3.53.14.77.62,1.37.89.95.44,2.17,0,3,.36.03-.34,0-.68-.1-1-.3-.61-1.45-.46-1.55-1.17,0-.28.1-.54.28-.75.35-.5.78-.93,1.27-1.28.51-.06,1.02-.04,1.52.08,1.01.35,1.74,1.24,1.88,2.3,0,.25-.14.44-.19.71-.04.52-.12,1.04-.23,1.55Z"/>
</svg>